<mxfile host="app.diagrams.net" modified="2023-08-10T15:01:04.203Z" agent="Mozilla/5.0 (Windows NT 10.0; Win64; x64) AppleWebKit/537.36 (KHTML, like Gecko) Chrome/115.0.0.0 Safari/537.36 Edg/115.0.1901.200" etag="K0ea5HP4NDLuEm1iRJnz" version="21.6.8" type="github">
  <diagram name="Page-1" id="YvrMIAv_Xus4pncKJ54v">
    <mxGraphModel dx="1010" dy="903" grid="1" gridSize="10" guides="1" tooltips="1" connect="1" arrows="1" fold="1" page="1" pageScale="1" pageWidth="850" pageHeight="1100" math="0" shadow="0">
      <root>
        <mxCell id="0" />
        <mxCell id="1" parent="0" />
        <mxCell id="AiJ1AVX8t26Myy8iiChH-1" value="start" style="ellipse;whiteSpace=wrap;html=1;" vertex="1" parent="1">
          <mxGeometry x="130" y="40" width="90" height="60" as="geometry" />
        </mxCell>
        <mxCell id="AiJ1AVX8t26Myy8iiChH-2" value="" style="endArrow=classic;html=1;rounded=0;" edge="1" parent="1">
          <mxGeometry width="50" height="50" relative="1" as="geometry">
            <mxPoint x="174.5" y="100" as="sourcePoint" />
            <mxPoint x="175" y="130" as="targetPoint" />
          </mxGeometry>
        </mxCell>
        <mxCell id="AiJ1AVX8t26Myy8iiChH-3" value="go to store" style="rounded=1;whiteSpace=wrap;html=1;" vertex="1" parent="1">
          <mxGeometry x="119" y="130" width="120" height="60" as="geometry" />
        </mxCell>
        <mxCell id="AiJ1AVX8t26Myy8iiChH-4" value="" style="endArrow=classic;html=1;rounded=0;" edge="1" parent="1">
          <mxGeometry width="50" height="50" relative="1" as="geometry">
            <mxPoint x="174.5" y="189" as="sourcePoint" />
            <mxPoint x="175" y="219" as="targetPoint" />
          </mxGeometry>
        </mxCell>
        <mxCell id="AiJ1AVX8t26Myy8iiChH-5" value="" style="endArrow=classic;html=1;rounded=0;" edge="1" parent="1">
          <mxGeometry width="50" height="50" relative="1" as="geometry">
            <mxPoint x="178.5" y="282" as="sourcePoint" />
            <mxPoint x="179" y="312" as="targetPoint" />
          </mxGeometry>
        </mxCell>
        <mxCell id="AiJ1AVX8t26Myy8iiChH-7" value="" style="endArrow=classic;html=1;rounded=0;" edge="1" parent="1" target="AiJ1AVX8t26Myy8iiChH-47">
          <mxGeometry width="50" height="50" relative="1" as="geometry">
            <mxPoint x="178.5" y="732" as="sourcePoint" />
            <mxPoint x="179" y="762" as="targetPoint" />
          </mxGeometry>
        </mxCell>
        <mxCell id="AiJ1AVX8t26Myy8iiChH-9" value="" style="endArrow=classic;html=1;rounded=0;" edge="1" parent="1" target="AiJ1AVX8t26Myy8iiChH-46">
          <mxGeometry width="50" height="50" relative="1" as="geometry">
            <mxPoint x="430" y="220" as="sourcePoint" />
            <mxPoint x="490" y="220" as="targetPoint" />
          </mxGeometry>
        </mxCell>
        <mxCell id="AiJ1AVX8t26Myy8iiChH-17" value="" style="endArrow=classic;html=1;rounded=0;" edge="1" parent="1" target="AiJ1AVX8t26Myy8iiChH-26">
          <mxGeometry width="50" height="50" relative="1" as="geometry">
            <mxPoint x="178.5" y="642" as="sourcePoint" />
            <mxPoint x="179" y="672" as="targetPoint" />
          </mxGeometry>
        </mxCell>
        <mxCell id="AiJ1AVX8t26Myy8iiChH-18" value="" style="endArrow=classic;html=1;rounded=0;" edge="1" parent="1" target="AiJ1AVX8t26Myy8iiChH-25">
          <mxGeometry width="50" height="50" relative="1" as="geometry">
            <mxPoint x="178.5" y="550" as="sourcePoint" />
            <mxPoint x="179" y="580" as="targetPoint" />
          </mxGeometry>
        </mxCell>
        <mxCell id="AiJ1AVX8t26Myy8iiChH-19" value="" style="endArrow=classic;html=1;rounded=0;" edge="1" parent="1" target="AiJ1AVX8t26Myy8iiChH-24">
          <mxGeometry width="50" height="50" relative="1" as="geometry">
            <mxPoint x="178.5" y="450" as="sourcePoint" />
            <mxPoint x="179" y="480" as="targetPoint" />
          </mxGeometry>
        </mxCell>
        <mxCell id="AiJ1AVX8t26Myy8iiChH-20" value="" style="endArrow=classic;html=1;rounded=0;" edge="1" parent="1" target="AiJ1AVX8t26Myy8iiChH-23">
          <mxGeometry width="50" height="50" relative="1" as="geometry">
            <mxPoint x="178.5" y="370" as="sourcePoint" />
            <mxPoint x="179" y="400" as="targetPoint" />
          </mxGeometry>
        </mxCell>
        <mxCell id="AiJ1AVX8t26Myy8iiChH-21" value="pick up cart" style="rounded=1;whiteSpace=wrap;html=1;" vertex="1" parent="1">
          <mxGeometry x="119" y="220" width="120" height="60" as="geometry" />
        </mxCell>
        <mxCell id="AiJ1AVX8t26Myy8iiChH-22" value="go through main entrance" style="rounded=1;whiteSpace=wrap;html=1;" vertex="1" parent="1">
          <mxGeometry x="119" y="310" width="120" height="60" as="geometry" />
        </mxCell>
        <mxCell id="AiJ1AVX8t26Myy8iiChH-23" value="go to produce section" style="rounded=1;whiteSpace=wrap;html=1;" vertex="1" parent="1">
          <mxGeometry x="119" y="400" width="120" height="60" as="geometry" />
        </mxCell>
        <mxCell id="AiJ1AVX8t26Myy8iiChH-24" value="grab 1 bunch of bananas" style="rounded=1;whiteSpace=wrap;html=1;" vertex="1" parent="1">
          <mxGeometry x="119" y="487" width="120" height="60" as="geometry" />
        </mxCell>
        <mxCell id="AiJ1AVX8t26Myy8iiChH-25" value="go to bakery section" style="rounded=1;whiteSpace=wrap;html=1;" vertex="1" parent="1">
          <mxGeometry x="119" y="580" width="120" height="60" as="geometry" />
        </mxCell>
        <mxCell id="AiJ1AVX8t26Myy8iiChH-26" value="pick up party cake" style="rounded=1;whiteSpace=wrap;html=1;" vertex="1" parent="1">
          <mxGeometry x="119" y="672" width="120" height="60" as="geometry" />
        </mxCell>
        <mxCell id="AiJ1AVX8t26Myy8iiChH-49" value="" style="edgeStyle=orthogonalEdgeStyle;rounded=0;orthogonalLoop=1;jettySize=auto;html=1;" edge="1" parent="1" source="AiJ1AVX8t26Myy8iiChH-27" target="AiJ1AVX8t26Myy8iiChH-37">
          <mxGeometry relative="1" as="geometry" />
        </mxCell>
        <mxCell id="AiJ1AVX8t26Myy8iiChH-27" value="grab totrilla chips" style="rounded=1;whiteSpace=wrap;html=1;" vertex="1" parent="1">
          <mxGeometry x="320" y="760" width="120" height="60" as="geometry" />
        </mxCell>
        <mxCell id="AiJ1AVX8t26Myy8iiChH-28" value="" style="endArrow=classic;html=1;rounded=0;" edge="1" parent="1">
          <mxGeometry width="50" height="50" relative="1" as="geometry">
            <mxPoint x="380" y="750" as="sourcePoint" />
            <mxPoint x="380" y="720" as="targetPoint" />
          </mxGeometry>
        </mxCell>
        <mxCell id="AiJ1AVX8t26Myy8iiChH-29" value="" style="endArrow=classic;html=1;rounded=0;" edge="1" parent="1">
          <mxGeometry width="50" height="50" relative="1" as="geometry">
            <mxPoint x="379.5" y="659" as="sourcePoint" />
            <mxPoint x="380" y="616" as="targetPoint" />
            <Array as="points">
              <mxPoint x="380" y="649" />
            </Array>
          </mxGeometry>
        </mxCell>
        <mxCell id="AiJ1AVX8t26Myy8iiChH-30" value="" style="endArrow=classic;html=1;rounded=0;" edge="1" parent="1" target="AiJ1AVX8t26Myy8iiChH-42">
          <mxGeometry width="50" height="50" relative="1" as="geometry">
            <mxPoint x="379.5" y="460" as="sourcePoint" />
            <mxPoint x="379.5" y="430" as="targetPoint" />
          </mxGeometry>
        </mxCell>
        <mxCell id="AiJ1AVX8t26Myy8iiChH-31" value="" style="endArrow=classic;html=1;rounded=0;" edge="1" parent="1">
          <mxGeometry width="50" height="50" relative="1" as="geometry">
            <mxPoint x="380" y="557" as="sourcePoint" />
            <mxPoint x="380" y="527" as="targetPoint" />
          </mxGeometry>
        </mxCell>
        <mxCell id="AiJ1AVX8t26Myy8iiChH-32" value="" style="endArrow=classic;html=1;rounded=0;" edge="1" parent="1" target="AiJ1AVX8t26Myy8iiChH-43">
          <mxGeometry width="50" height="50" relative="1" as="geometry">
            <mxPoint x="379" y="370" as="sourcePoint" />
            <mxPoint x="379" y="340" as="targetPoint" />
          </mxGeometry>
        </mxCell>
        <mxCell id="AiJ1AVX8t26Myy8iiChH-33" value="" style="endArrow=classic;html=1;rounded=0;" edge="1" parent="1">
          <mxGeometry width="50" height="50" relative="1" as="geometry">
            <mxPoint x="379.5" y="280" as="sourcePoint" />
            <mxPoint x="379.5" y="250" as="targetPoint" />
          </mxGeometry>
        </mxCell>
        <mxCell id="AiJ1AVX8t26Myy8iiChH-37" value="grab salsa" style="rounded=1;whiteSpace=wrap;html=1;" vertex="1" parent="1">
          <mxGeometry x="320" y="660" width="120" height="60" as="geometry" />
        </mxCell>
        <mxCell id="AiJ1AVX8t26Myy8iiChH-38" value="grab bag of black beans" style="rounded=1;whiteSpace=wrap;html=1;" vertex="1" parent="1">
          <mxGeometry x="320" y="462" width="120" height="60" as="geometry" />
        </mxCell>
        <mxCell id="AiJ1AVX8t26Myy8iiChH-40" value="grab coffee" style="rounded=1;whiteSpace=wrap;html=1;" vertex="1" parent="1">
          <mxGeometry x="322" y="560" width="120" height="60" as="geometry" />
        </mxCell>
        <mxCell id="AiJ1AVX8t26Myy8iiChH-42" value="grab paper plates" style="rounded=1;whiteSpace=wrap;html=1;" vertex="1" parent="1">
          <mxGeometry x="319.5" y="373" width="120" height="60" as="geometry" />
        </mxCell>
        <mxCell id="AiJ1AVX8t26Myy8iiChH-43" value="grab 2 frozen veggie pizzas" style="rounded=1;whiteSpace=wrap;html=1;" vertex="1" parent="1">
          <mxGeometry x="319.5" y="280" width="120" height="60" as="geometry" />
        </mxCell>
        <mxCell id="AiJ1AVX8t26Myy8iiChH-44" value="grab yogurt" style="rounded=1;whiteSpace=wrap;html=1;" vertex="1" parent="1">
          <mxGeometry x="310" y="190" width="120" height="60" as="geometry" />
        </mxCell>
        <mxCell id="AiJ1AVX8t26Myy8iiChH-46" value="go to check out" style="rounded=1;whiteSpace=wrap;html=1;" vertex="1" parent="1">
          <mxGeometry x="480" y="190" width="120" height="60" as="geometry" />
        </mxCell>
        <mxCell id="AiJ1AVX8t26Myy8iiChH-48" value="" style="edgeStyle=orthogonalEdgeStyle;rounded=0;orthogonalLoop=1;jettySize=auto;html=1;" edge="1" parent="1" source="AiJ1AVX8t26Myy8iiChH-47" target="AiJ1AVX8t26Myy8iiChH-27">
          <mxGeometry relative="1" as="geometry" />
        </mxCell>
        <mxCell id="AiJ1AVX8t26Myy8iiChH-47" value="grab bag of packaged salad mix" style="rounded=1;whiteSpace=wrap;html=1;" vertex="1" parent="1">
          <mxGeometry x="119" y="760" width="120" height="60" as="geometry" />
        </mxCell>
        <mxCell id="AiJ1AVX8t26Myy8iiChH-50" value="" style="endArrow=classic;html=1;rounded=0;" edge="1" parent="1">
          <mxGeometry width="50" height="50" relative="1" as="geometry">
            <mxPoint x="540" y="250" as="sourcePoint" />
            <mxPoint x="540" y="300" as="targetPoint" />
          </mxGeometry>
        </mxCell>
        <mxCell id="AiJ1AVX8t26Myy8iiChH-51" value="end" style="ellipse;whiteSpace=wrap;html=1;" vertex="1" parent="1">
          <mxGeometry x="480" y="300" width="120" height="80" as="geometry" />
        </mxCell>
      </root>
    </mxGraphModel>
  </diagram>
</mxfile>
